<?xml version="1.0" encoding="UTF-8"?>
<svg width="574px" height="100px" viewBox="0 0 574 100" version="1.1" xmlns="http://www.w3.org/2000/svg" xmlns:xlink="http://www.w3.org/1999/xlink" xmlns:sketch="http://www.bohemiancoding.com/sketch/ns">
    <!-- Generator: Sketch 3.3.3 (12072) - http://www.bohemiancoding.com/sketch -->
    <title>logo</title>
    <desc>Created with Sketch.</desc>
    <defs></defs>
    <g id="Page-1" stroke="none" stroke-width="1" fill="none" fill-rule="evenodd" sketch:type="MSPage">
        <g id="logo" sketch:type="MSArtboardGroup">
            <g id="stockwatch_logo" sketch:type="MSLayerGroup" transform="translate(-5.000000, -8.000000)">
                <g id="SvgjsG1137"></g>
                <g id="SvgjsG1138" transform="translate(11.085945, 13.319271)" fill="#2F8535" sketch:type="MSShapeGroup">
                    <path d="M97.972477,8.30512108 C96.9341624,3.99475778 93.1080442,0.985038687 88.6703161,0.985038687 C87.9175653,0.985038687 87.1615323,1.07458766 86.4240991,1.25150148 C81.2927024,2.48443793 78.1219588,7.65425295 79.357214,12.7782014 C79.8003303,14.6194156 80.7543981,16.2181924 82.0454532,17.4511289 L60.8787153,57.2075961 C59.8075773,56.791521 58.6456278,56.5545438 57.4289725,56.5545438 C55.5635074,56.5545438 53.8271478,57.09839 52.3533757,58.0244574 L36.5302927,37.7481677 C37.7939949,36.1297339 38.5554985,34.0985011 38.5554985,31.8914466 C38.5554985,26.6233461 34.2610994,22.335916 28.9819972,22.335916 C23.7028951,22.335916 19.4084959,26.6233461 19.4084959,31.8914466 C19.4084959,34.6434393 20.5857631,37.1191408 22.4556046,38.8642537 L10.7595213,65.1337721 C10.4455105,65.1021023 10.1271232,65.0846294 9.80545356,65.0846294 C4.52635141,65.0846294 0.23195226,69.3720594 0.23195226,74.6401599 C0.23195226,79.9104445 4.52635141,84.1956904 9.80545356,84.1956904 C15.0845557,84.1956904 19.3789549,79.9104445 19.3789549,74.6401599 C19.3789549,71.2449434 17.5900778,68.2647099 14.9084033,66.5687398 L26.2718758,41.0527432 C27.1318497,41.3061012 28.0399647,41.4469771 28.9819972,41.4469771 C30.4667105,41.4469771 31.8693652,41.0997018 33.1243145,40.4936081 L49.2537495,61.1619476 C48.3718932,62.6078359 47.8554712,64.2972537 47.8554712,66.1100743 C47.8554712,71.3803589 52.1498704,75.6656048 57.4289725,75.6656048 C62.7080747,75.6656048 67.0024738,71.3803589 67.0024738,66.1100743 C67.0024738,63.6420173 66.0516884,61.3967406 64.5078929,59.6985864 L85.8223362,19.6636437 C86.7227924,19.9432112 87.6746719,20.0982838 88.660469,20.0982838 C89.4132198,20.0982838 90.1692528,20.0087348 90.906686,19.831821 C96.0369885,18.5988846 99.2077322,13.4290696 97.972477,8.30512108 L97.972477,8.30512108 Z M9.80545356,79.8274479 C6.93996785,79.8274479 4.60841,77.5002667 4.60841,74.6401599 C4.60841,71.7800531 6.93996785,69.4528719 9.80545356,69.4528719 C12.6709393,69.4528719 15.0024971,71.7800531 15.0024971,74.6401599 C15.0024971,77.5002667 12.6709393,79.8274479 9.80545356,79.8274479 L9.80545356,79.8274479 Z M23.7838596,31.8914466 C23.7838596,29.0313398 26.1154174,26.7041586 28.9809031,26.7041586 C31.8463888,26.7041586 34.1779467,29.0313398 34.1779467,31.8914466 C34.1779467,34.7515533 31.8463888,37.0787345 28.9809031,37.0787345 C26.1154174,37.0787345 23.7838596,34.7515533 23.7838596,31.8914466 L23.7838596,31.8914466 Z M57.4278784,71.2973623 C54.5623927,71.2973623 52.2308348,68.9701811 52.2308348,66.1100743 C52.2308348,63.2499675 54.5623927,60.9227863 57.4278784,60.9227863 C60.2933641,60.9227863 62.624922,63.2499675 62.624922,66.1100743 C62.624922,68.9701811 60.2933641,71.2973623 57.4278784,71.2973623 L57.4278784,71.2973623 Z M89.8815007,15.5847972 C89.4788666,15.6808986 89.0674796,15.7300413 88.6593749,15.7300413 C87.8004951,15.7300413 86.9886622,15.5149054 86.2665466,15.1392365 C86.1516646,15.0431352 86.0258415,14.9579544 85.8879831,14.8858784 C85.8507832,14.8640372 85.8103009,14.8563928 85.7720069,14.8367357 C84.7216571,14.1323566 83.9262359,13.0621372 83.6111309,11.7571247 C82.9415329,8.97564631 84.6614808,6.16905049 87.4470961,5.49961733 C87.8497302,5.40351599 88.2611173,5.35437326 88.6692219,5.35437326 C91.0762737,5.35437326 93.1529029,6.98809597 93.7163718,9.32838189 C94.3881581,12.1087683 92.6671161,14.9153641 89.8815007,15.5847972 L89.8815007,15.5847972 Z" id="Shape"></path>
                </g>
                <g id="SvgjsG1139" transform="translate(123.798634, 21.319271)" fill="#2F8535" sketch:type="MSShapeGroup">
                    <path d="M20.9108561,58.706582 C24.6875844,58.706582 27.4368205,58.0690696 29.1585643,56.7940447 C30.8803081,55.5190197 31.74118,53.7173541 31.74118,51.3890477 C31.74118,50.0031511 31.4495943,48.81128 30.8664231,47.8134344 C30.2832518,46.8155888 29.4501499,45.914756 28.3671175,45.1109359 C27.2840852,44.3071159 25.9650072,43.5587317 24.4098838,42.8657833 C22.8547604,42.172835 21.0774765,41.4937457 19.0780321,40.8285153 C17.0785877,40.107849 15.1485684,39.3178879 13.2879743,38.458632 C11.4273802,37.5993761 9.78894658,36.5322357 8.37267346,35.2572107 C6.95640034,33.9821858 5.81782783,32.4576995 4.95695593,30.6837518 C4.09608403,28.9098041 3.66564808,26.7755232 3.66564808,24.2809093 C3.66564808,19.0699379 5.47070206,14.9815428 9.08081002,12.0157239 C12.690918,9.04990511 17.6062188,7.5669957 23.8267125,7.5669957 C27.4368205,7.5669957 30.6442626,7.96890573 33.4490387,8.77272578 C36.2538149,9.57654584 38.4615348,10.4496607 40.0721984,11.3920705 L36.8231012,19.8737579 C34.934737,18.8204765 32.8658675,18.0166564 30.6164925,17.4622978 C28.3671175,16.9079391 26.0483174,16.6307598 23.6600922,16.6307598 C20.8275459,16.6307598 18.6198261,17.2128364 17.0369326,18.3769896 C15.4540391,19.5411427 14.6625923,21.1765008 14.6625923,23.2830637 C14.6625923,24.5580886 14.9264079,25.652947 15.4540391,26.5676388 C15.9816702,27.4823305 16.7314619,28.3000096 17.703414,29.0206758 C18.6753662,29.7413421 19.8139387,30.4065725 21.1191316,31.016367 C22.4243244,31.6261615 23.8544826,32.2082381 25.409606,32.7625968 C28.131072,33.7604424 30.5609524,34.7721469 32.6992471,35.7977104 C34.8375418,36.823274 36.6425958,38.042863 38.114409,39.4564776 C39.5862223,40.8700922 40.7109098,42.5331681 41.4884715,44.4457055 C42.2660332,46.3582429 42.654814,48.6726903 42.654814,51.3890477 C42.654814,56.6000191 40.808105,60.6329784 37.1146868,63.4879255 C33.4212687,66.3428726 28.0199918,67.7703461 20.9108561,67.7703461 C18.5226308,67.7703461 16.342681,67.6178975 14.3710067,67.3130002 C12.3993323,67.008103 10.6498185,66.6339109 9.12246511,66.1904239 C7.59511175,65.746937 6.27603384,65.2895911 5.16523139,64.8183862 C4.05442894,64.3471814 3.16578698,63.9175534 2.49930551,63.5295024 L5.58178231,54.9646611 C7.08136561,55.7961991 9.10858008,56.6277371 11.6634257,57.459275 C14.2182713,58.290813 17.3007481,58.706582 20.9108561,58.706582 L20.9108561,58.706582 Z M50.9025222,11.558378 L60.9830545,9.89530207 L60.9830545,23.0336023 L76.4787486,23.0336023 L76.4787486,31.432136 L60.9830545,31.432136 L60.9830545,49.1438952 C60.9830545,52.6363547 61.5384557,55.1309687 62.6492581,56.6277371 C63.7600606,58.1245054 65.6484247,58.8728896 68.3143506,58.8728896 C70.1471747,58.8728896 71.7717232,58.6788641 73.1879964,58.290813 C74.6042695,57.902762 75.728957,57.5424288 76.5620588,57.2098136 L78.2282625,65.1925783 C77.0619199,65.6915011 75.5345665,66.2042829 73.6462024,66.7309236 C71.7578382,67.2575644 69.5362333,67.5208847 66.9813877,67.5208847 C63.8711408,67.5208847 61.2746401,67.1051157 59.1918855,66.2735777 C57.1091309,65.4420397 55.4568123,64.2363097 54.2349296,62.6563875 C53.0130469,61.0764653 52.152175,59.1639279 51.6523139,56.9187754 C51.1524528,54.6736228 50.9025222,52.109714 50.9025222,49.227049 L50.9025222,11.558378 L50.9025222,11.558378 Z M125.631757,44.7367438 C125.631757,48.1737675 125.131896,51.3058939 124.132174,54.1331231 C123.132451,56.9603523 121.716178,59.3718124 119.883354,61.3675036 C118.05053,63.3631948 115.84281,64.915399 113.260195,66.0241163 C110.677579,67.1328337 107.831148,67.6871923 104.720901,67.6871923 C101.610654,67.6871923 98.7781078,67.1328337 96.2232622,66.0241163 C93.6684165,64.915399 91.4745817,63.3631948 89.6417576,61.3675036 C87.8089336,59.3718124 86.3787755,56.9603523 85.3512832,54.1331231 C84.3237909,51.3058939 83.8100448,48.1737675 83.8100448,44.7367438 C83.8100448,41.2997201 84.3237909,38.1814527 85.3512832,35.3819414 C86.3787755,32.5824302 87.8228186,30.184829 89.6834127,28.1891378 C91.5440068,26.1934467 93.7517267,24.6551014 96.3065723,23.574102 C98.861418,22.4931026 101.666194,21.9526029 104.720901,21.9526029 C107.775608,21.9526029 110.594269,22.4931026 113.176885,23.574102 C115.7595,24.6551014 117.96722,26.1934467 119.800044,28.1891378 C121.632868,30.184829 123.063026,32.5824302 124.090519,35.3819414 C125.118011,38.1814527 125.631757,41.2997201 125.631757,44.7367438 L125.631757,44.7367438 Z M115.301294,44.7367438 C115.301294,40.4127463 114.370997,36.9895815 112.510403,34.4672496 C110.649809,31.9449177 108.053308,30.6837518 104.720901,30.6837518 C101.388494,30.6837518 98.7919928,31.9449177 96.9313987,34.4672496 C95.0708046,36.9895815 94.1405076,40.4127463 94.1405076,44.7367438 C94.1405076,49.1161772 95.0708046,52.5809188 96.9313987,55.1309687 C98.7919928,57.6810185 101.388494,58.9560434 104.720901,58.9560434 C108.053308,58.9560434 110.649809,57.6810185 112.510403,55.1309687 C114.370997,52.5809188 115.301294,49.1161772 115.301294,44.7367438 L115.301294,44.7367438 Z M133.629535,44.8198976 C133.629535,41.6046174 134.129396,38.5972217 135.129118,35.7977104 C136.12884,32.9981992 137.558998,30.5728801 139.419592,28.521753 C141.280187,26.470626 143.543446,24.8629859 146.209372,23.6988327 C148.875298,22.5346795 151.874465,21.9526029 155.206872,21.9526029 C159.316841,21.9526029 163.20465,22.7009871 166.870298,24.1977555 L164.704233,32.4299816 C163.537891,31.9310588 162.218813,31.5152898 160.746999,31.1826746 C159.275186,30.8500594 157.706178,30.6837518 156.039974,30.6837518 C152.096625,30.6837518 149.097459,31.9171998 147.042474,34.3840958 C144.98749,36.8509919 143.959997,40.3295925 143.959997,44.8198976 C143.959997,49.1438952 144.93195,52.5670599 146.875854,55.0893918 C148.819758,57.6117237 152.096625,58.8728896 156.706456,58.8728896 C158.428199,58.8728896 160.122173,58.706582 161.788377,58.3739668 C163.45458,58.0413516 164.898624,57.6255826 166.120506,57.1266599 L167.536779,65.4420397 C166.425977,65.9963984 164.745888,66.4953212 162.496513,66.9388081 C160.247138,67.382295 157.928338,67.6040385 155.540113,67.6040385 C151.818925,67.6040385 148.583713,67.0358209 145.834477,65.8993856 C143.08524,64.7629504 140.808095,63.1830282 139.003041,61.1596191 C137.197987,59.13621 135.85114,56.7247498 134.962498,53.9252386 C134.073856,51.1257274 133.629535,48.0906137 133.629535,44.8198976 L133.629535,44.8198976 Z M185.448469,39.9969773 C186.725892,38.6665165 188.086625,37.2390429 189.530668,35.7145566 C190.974711,34.1900703 192.390984,32.665584 193.779487,31.1410977 C195.16799,29.6166114 196.487068,28.1475609 197.736721,26.7339463 C198.986374,25.3203318 200.055521,24.0868838 200.944163,23.0336023 L212.857519,23.0336023 C210.080513,26.1380108 207.150772,29.353291 204.068295,32.679443 C200.985818,36.0055949 197.889456,39.2485931 194.779209,42.4084374 C196.445413,43.7943341 198.194927,45.471269 200.027751,47.4392423 C201.860575,49.4072155 203.637859,51.4999195 205.359603,53.7173541 C207.081347,55.9347887 208.69201,58.1522234 210.191593,60.369658 C211.691177,62.5870926 212.94083,64.6382197 213.940552,66.5230391 L202.277126,66.5230391 C201.277404,64.8045273 200.124946,63.0028616 198.819753,61.1180422 C197.51456,59.2332228 196.112172,57.4038392 194.612589,55.6298915 C193.113006,53.8559438 191.585652,52.1790088 190.030529,50.5990866 C188.475406,49.0191645 186.948052,47.6748447 185.448469,46.5661274 L185.448469,66.5230391 L175.367937,66.5230391 L175.367937,3.65876715 L185.448469,1.99569117 L185.448469,39.9969773 L185.448469,39.9969773 Z M247.264625,39.1654393 C245.987202,44.0437955 244.612584,48.797421 243.140771,53.4263158 C241.668958,58.0552106 240.21103,62.420785 238.766986,66.5230391 L230.519278,66.5230391 C229.408476,63.9729893 228.242133,61.0626063 227.020251,57.7918902 C225.798368,54.5211742 224.576485,51.0287146 223.354602,47.3145116 C222.13272,43.6003086 220.910837,39.69208 219.688954,35.5898259 C218.467072,31.4875719 217.272959,27.302164 216.106616,23.0336023 L226.77032,23.0336023 C227.270181,25.3619087 227.853352,27.8703816 228.519834,30.5590211 C229.186315,33.2476606 229.880567,35.991736 230.602588,38.7912472 C231.32461,41.5907584 232.074402,44.3209748 232.851963,46.9818964 C233.629525,49.6428179 234.407087,52.0819961 235.184649,54.2994307 C236.01775,51.7493809 236.836967,49.1161772 237.642299,46.3998198 C238.447631,43.6834624 239.211307,40.9671049 239.933329,38.2507475 C240.655351,35.5343901 241.335717,32.8873275 241.974429,30.3095597 C242.61314,27.7317919 243.182426,25.3064728 243.682287,23.0336023 L251.430134,23.0336023 C251.929995,25.3064728 252.485397,27.7317919 253.096338,30.3095597 C253.707279,32.8873275 254.359876,35.5343901 255.054127,38.2507475 C255.748379,40.9671049 256.498171,43.6834624 257.303502,46.3998198 C258.108834,49.1161772 258.928051,51.7493809 259.761153,54.2994307 C260.483174,52.0819961 261.232966,49.6428179 262.010528,46.9818964 C262.788089,44.3209748 263.551766,41.5907584 264.301558,38.7912472 C265.051349,35.991736 265.759486,33.2476606 266.425967,30.5590211 C267.092449,27.8703816 267.67562,25.3619087 268.175481,23.0336023 L278.589254,23.0336023 C277.422912,27.302164 276.228799,31.4875719 275.006916,35.5898259 C273.785034,39.69208 272.563151,43.6003086 271.341268,47.3145116 C270.119386,51.0287146 268.897503,54.5211742 267.67562,57.7918902 C266.453737,61.0626063 265.259625,63.9729893 264.093282,66.5230391 L255.928884,66.5230391 C254.484841,62.420785 252.999143,58.0552106 251.471789,53.4263158 C249.944436,48.797421 248.542048,44.0437955 247.264625,39.1654393 L247.264625,39.1654393 Z M301.582865,59.4549662 C304.693112,59.4549662 307.053567,59.2886586 308.664231,58.9560434 L308.664231,47.8134344 C308.108829,47.6471268 307.303498,47.4808192 306.248235,47.3145116 C305.192973,47.148204 304.02663,47.0650502 302.749208,47.0650502 C301.638405,47.0650502 300.513718,47.148204 299.375145,47.3145116 C298.236573,47.4808192 297.20908,47.7857164 296.292668,48.2292034 C295.376256,48.6726903 294.64035,49.2963438 294.084948,50.1001638 C293.529547,50.9039839 293.251847,51.9156885 293.251847,53.1352775 C293.251847,55.5190197 294.001638,57.1682368 295.501222,58.0829285 C297.000805,58.9976203 299.028019,59.4549662 301.582865,59.4549662 L301.582865,59.4549662 Z M300.749763,21.9526029 C304.08217,21.9526029 306.886947,22.3683719 309.164092,23.1999099 C311.441237,24.0314479 313.260176,25.1956011 314.620909,26.6923694 C315.981642,28.1891378 316.953594,30.0046624 317.536765,32.1389433 C318.119936,34.2732241 318.411522,36.6153895 318.411522,39.1654393 L318.411522,65.5251935 C316.856399,65.8578087 314.509828,66.2597188 311.371812,66.7309236 C308.233795,67.2021285 304.693112,67.4377309 300.749763,67.4377309 C298.139377,67.4377309 295.751152,67.1882695 293.585087,66.6893467 C291.419023,66.1904239 289.572313,65.3866039 288.04496,64.2778866 C286.517607,63.1691692 285.323494,61.7278367 284.462622,59.953889 C283.60175,58.1799413 283.171314,55.9902246 283.171314,53.3847389 C283.171314,50.8901249 283.65729,48.783562 284.629243,47.0650502 C285.601195,45.3465383 286.920273,43.9467827 288.586476,42.8657833 C290.25268,41.784784 292.182699,41.0086818 294.376534,40.537477 C296.570369,40.0662721 298.861399,39.8306697 301.249624,39.8306697 C302.360427,39.8306697 303.526769,39.8999645 304.748652,40.0385542 C305.970535,40.1771438 307.275727,40.4127463 308.664231,40.7453615 L308.664231,39.0822855 C308.664231,37.9181323 308.52538,36.809415 308.24768,35.7561335 C307.969979,34.7028521 307.484003,33.7743013 306.789751,32.9704813 C306.0955,32.1666612 305.179088,31.5430077 304.040515,31.0995208 C302.901943,30.6560339 301.471785,30.4342904 299.750041,30.4342904 C297.417356,30.4342904 295.279061,30.600598 293.335157,30.9332132 C291.391252,31.2658284 289.808359,31.6538795 288.586476,32.0973664 L287.336824,23.9482941 C288.614246,23.5048072 290.47484,23.0613202 292.918606,22.6178333 C295.362371,22.1743464 297.972757,21.9526029 300.749763,21.9526029 L300.749763,21.9526029 Z M330.241568,11.558378 L340.3221,9.89530207 L340.3221,23.0336023 L355.817795,23.0336023 L355.817795,31.432136 L340.3221,31.432136 L340.3221,49.1438952 C340.3221,52.6363547 340.877502,55.1309687 341.988304,56.6277371 C343.099106,58.1245054 344.987471,58.8728896 347.653397,58.8728896 C349.486221,58.8728896 351.110769,58.6788641 352.527042,58.290813 C353.943315,57.902762 355.068003,57.5424288 355.901105,57.2098136 L357.567308,65.1925783 C356.400966,65.6915011 354.873612,66.2042829 352.985248,66.7309236 C351.096884,67.2575644 348.875279,67.5208847 346.320434,67.5208847 C343.210187,67.5208847 340.613686,67.1051157 338.530931,66.2735777 C336.448177,65.4420397 334.795858,64.2363097 333.573975,62.6563875 C332.352093,61.0764653 331.491221,59.1639279 330.99136,56.9187754 C330.491499,54.6736228 330.241568,52.109714 330.241568,49.227049 L330.241568,11.558378 L330.241568,11.558378 Z M363.149091,44.8198976 C363.149091,41.6046174 363.648952,38.5972217 364.648674,35.7977104 C365.648396,32.9981992 367.078554,30.5728801 368.939148,28.521753 C370.799743,26.470626 373.063003,24.8629859 375.728928,23.6988327 C378.394854,22.5346795 381.394021,21.9526029 384.726428,21.9526029 C388.836397,21.9526029 392.724206,22.7009871 396.389854,24.1977555 L394.223789,32.4299816 C393.057447,31.9310588 391.738369,31.5152898 390.266555,31.1826746 C388.794742,30.8500594 387.225734,30.6837518 385.55953,30.6837518 C381.616181,30.6837518 378.617015,31.9171998 376.56203,34.3840958 C374.507046,36.8509919 373.479553,40.3295925 373.479553,44.8198976 C373.479553,49.1438952 374.451506,52.5670599 376.39541,55.0893918 C378.339314,57.6117237 381.616181,58.8728896 386.226012,58.8728896 C387.947755,58.8728896 389.641729,58.706582 391.307933,58.3739668 C392.974136,58.0413516 394.41818,57.6255826 395.640062,57.1266599 L397.056335,65.4420397 C395.945533,65.9963984 394.265444,66.4953212 392.016069,66.9388081 C389.766694,67.382295 387.447894,67.6040385 385.059669,67.6040385 C381.338481,67.6040385 378.103269,67.0358209 375.354033,65.8993856 C372.604797,64.7629504 370.327652,63.1830282 368.522598,61.1596191 C366.717544,59.13621 365.370696,56.7247498 364.482054,53.9252386 C363.593412,51.1257274 363.149091,48.0906137 363.149091,44.8198976 L363.149091,44.8198976 Z M404.887493,66.5230391 L404.887493,3.65876715 L414.968025,1.99569117 L414.968025,23.5325251 C416.078827,23.144474 417.370135,22.8118588 418.841948,22.5346795 C420.313762,22.2575002 421.77169,22.1189105 423.215733,22.1189105 C426.714761,22.1189105 429.616732,22.6039743 431.921647,23.574102 C434.226562,24.5442296 436.073271,25.9024084 437.461775,27.6486381 C438.850278,29.3948679 439.836115,31.4875719 440.419286,33.92675 C441.002457,36.3659281 441.294043,39.0822855 441.294043,42.0758222 L441.294043,66.5230391 L431.213511,66.5230391 L431.213511,43.6557444 C431.213511,41.3274381 431.060775,39.3456059 430.755305,37.7102478 C430.449834,36.0748898 429.949973,34.744429 429.255721,33.7188655 C428.56147,32.6933019 427.631173,31.9449177 426.46483,31.4737129 C425.298488,31.002508 423.854445,30.7669056 422.132701,30.7669056 C420.799738,30.7669056 419.439005,30.9054953 418.050502,31.1826746 C416.661999,31.4598539 415.634506,31.7093153 414.968025,31.9310588 L414.968025,66.5230391 L404.887493,66.5230391 L404.887493,66.5230391 Z" id="Shape"></path>
                </g>
            </g>
        </g>
    </g>
</svg>