<?xml version="1.0" encoding="UTF-8"?>
<svg width="768px" height="182px" viewBox="0 0 768 182" version="1.1" xmlns="http://www.w3.org/2000/svg" xmlns:xlink="http://www.w3.org/1999/xlink" xmlns:sketch="http://www.bohemiancoding.com/sketch/ns">
    <!-- Generator: Sketch 3.3.3 (12072) - http://www.bohemiancoding.com/sketch -->
    <title>logo</title>
    <desc>Created with Sketch.</desc>
    <defs></defs>
    <g id="Page-1" stroke="none" stroke-width="1" fill="none" fill-rule="evenodd" sketch:type="MSPage">
        <g id="logo" sketch:type="MSArtboardGroup">
            <g id="stockwatch_logo" sketch:type="MSLayerGroup" transform="translate(-5.000000, -8.000000)">
                <g id="SvgjsG1137"></g>
                <g id="SvgjsG1138" transform="translate(18.294244, 16.819271)" fill="#2F8535" sketch:type="MSShapeGroup">
                    <path d="M187.310232,15.8782773 C185.325114,7.63744094 178.010089,1.88326182 169.525748,1.88326182 C168.08659,1.88326182 166.641156,2.05446744 165.231283,2.39270293 C155.420741,4.74991201 149.358704,14.6339047 151.720347,24.4302068 C152.567526,27.9503614 154.391575,31.007008 156.859899,33.3642171 L116.391936,109.373249 C114.344064,108.577769 112.122572,108.1247 109.796491,108.1247 C106.229972,108.1247 102.910285,109.164461 100.092631,110.934978 L69.8410188,72.1694324 C72.2570478,69.075204 73.7129406,65.1917594 73.7129406,60.9721673 C73.7129406,50.9002659 65.5026255,42.7032749 55.4096905,42.7032749 C45.3167554,42.7032749 37.1064404,50.9002659 37.1064404,60.9721673 C37.1064404,66.2336082 39.3572172,70.9668173 42.9321034,74.303239 L20.5707613,124.527034 C19.9704147,124.466486 19.3617009,124.43308 18.7467117,124.43308 C8.65377665,124.43308 0.443461602,132.630071 0.443461602,142.701972 C0.443461602,152.778049 8.65377665,160.970864 18.7467117,160.970864 C28.8396468,160.970864 37.0499618,152.778049 37.0499618,142.701972 C37.0499618,136.210774 33.6298688,130.512967 28.5028669,127.2705 L50.2283019,78.4873373 C51.8724567,78.9717239 53.6086507,79.2410596 55.4096905,79.2410596 C58.2482631,79.2410596 60.9299507,78.5771159 63.3292453,77.4183461 L94.1665611,116.933438 C92.4805703,119.697783 91.4932407,122.927723 91.4932407,126.393593 C91.4932407,136.46967 99.7035557,144.662485 109.796491,144.662485 C119.889426,144.662485 128.099741,136.46967 128.099741,126.393593 C128.099741,121.674999 126.281967,117.382331 123.330437,114.135688 L164.080793,37.5942487 C165.802344,38.1287442 167.62221,38.4252223 169.506922,38.4252223 C170.94608,38.4252223 172.391514,38.2540167 173.801388,37.9157812 C183.609838,35.5585721 189.671874,25.6745793 187.310232,15.8782773 L187.310232,15.8782773 Z M18.7467117,152.619371 C13.2682875,152.619371 8.81066165,148.170112 8.81066165,142.701972 C8.81066165,137.233831 13.2682875,132.784573 18.7467117,132.784573 C24.2251359,132.784573 28.6827617,137.233831 28.6827617,142.701972 C28.6827617,148.170112 24.2251359,152.619371 18.7467117,152.619371 L18.7467117,152.619371 Z M45.4715486,60.9721673 C45.4715486,55.5040268 49.9291745,51.0547685 55.4075987,51.0547685 C60.8860229,51.0547685 65.3436487,55.5040268 65.3436487,60.9721673 C65.3436487,66.4403077 60.8860229,70.889566 55.4075987,70.889566 C49.9291745,70.889566 45.4715486,66.4403077 45.4715486,60.9721673 L45.4715486,60.9721673 Z M109.794399,136.310991 C104.315975,136.310991 99.8583489,131.861733 99.8583489,126.393593 C99.8583489,120.925452 104.315975,116.476194 109.794399,116.476194 C115.272823,116.476194 119.730449,120.925452 119.730449,126.393593 C119.730449,131.861733 115.272823,136.310991 109.794399,136.310991 L109.794399,136.310991 Z M171.841371,29.7960415 C171.071588,29.9797743 170.285072,30.0737286 169.50483,30.0737286 C167.862767,30.0737286 166.310652,29.6624176 164.930064,28.9441891 C164.710425,28.7604563 164.469868,28.5976021 164.206301,28.4598025 C164.13518,28.418045 164.057783,28.4034299 163.98457,28.3658482 C161.976442,27.0191698 160.455703,24.9730539 159.853265,22.4780452 C158.573083,17.1602316 161.861393,11.7943969 167.187116,10.5145305 C167.956898,10.3307976 168.743415,10.2368433 169.523656,10.2368433 C174.125617,10.2368433 178.095853,13.360302 179.17313,17.8346147 C180.457495,23.1503404 177.167094,28.5161751 171.841371,29.7960415 L171.841371,29.7960415 Z" id="Shape"></path>
                </g>
                <g id="SvgjsG1139" transform="translate(221.798634, 34.966594)" fill="#2F8535" sketch:type="MSShapeGroup">
                    <path d="M25.5502567,71.7315558 C30.1649113,71.7315558 33.5241084,70.9526012 35.627848,69.3946921 C37.7315876,67.8367829 38.7834574,65.6353896 38.7834574,62.790512 C38.7834574,61.0971325 38.4271789,59.6408261 37.7146219,58.4215929 C37.002065,57.2023596 35.9841265,56.101663 34.6608064,55.1195028 C33.3374863,54.1373427 31.7257504,53.2229178 29.8255985,52.376228 C27.9254466,51.5295383 25.7538444,50.6997823 23.310792,49.8869602 C20.8677395,49.0064028 18.5095153,48.0411765 16.2361193,46.9912812 C13.9627233,45.9413859 11.9607775,44.6374837 10.2302821,43.0795746 C8.49978659,41.5216654 7.10860396,39.658948 6.05673416,37.4914222 C5.00486436,35.3238964 4.47892946,32.716092 4.47892946,29.6680089 C4.47892946,23.300902 6.68446291,18.3054324 11.0955298,14.6816003 C15.5065967,11.0577682 21.5124339,9.24585209 29.1130415,9.24585209 C33.5241084,9.24585209 37.4431717,9.73693215 40.8702313,10.7190923 C44.297291,11.7012524 46.9948281,12.7680815 48.9628425,13.9195795 L44.9928823,24.2830621 C42.685555,22.9960937 40.1576744,22.0139335 37.4092404,21.3365817 C34.6608064,20.6592299 31.8275442,20.320554 28.9094538,20.320554 C25.4484629,20.320554 22.7509258,21.0317734 20.8168426,22.4542122 C18.8827594,23.876651 17.9157178,25.8748388 17.9157178,28.4487757 C17.9157178,30.0066848 18.238065,31.3444546 18.8827594,32.4620851 C19.5274538,33.5797156 20.4435985,34.5788095 21.6311934,35.4593668 C22.8187884,36.3399241 24.209971,37.1527463 25.8047413,37.8978333 C27.3995117,38.6429203 29.1469728,39.3541397 31.0471247,40.0314915 C34.3723905,41.2507247 37.3413778,42.4868917 39.9540867,43.7399926 C42.5667955,44.9930934 44.772329,46.4832674 46.570687,48.2105145 C48.3690451,49.9377616 49.7432621,51.969817 50.693338,54.3066807 C51.6434139,56.6435444 52.1184519,59.4714882 52.1184519,62.790512 C52.1184519,69.1576189 49.8620215,74.0853533 45.3491608,77.5737151 C40.8363001,81.0620768 34.2366654,82.8062577 25.5502567,82.8062577 C22.6321663,82.8062577 19.9685605,82.619986 17.5594394,82.2474425 C15.1503182,81.874899 13.0126473,81.4176865 11.1464267,80.8758051 C9.28020612,80.3339237 7.66847014,79.7751084 6.31121879,79.1993594 C4.95396744,78.6236104 3.86816635,78.0986627 3.05381554,77.6245164 L6.82018804,67.1594311 C8.65247737,68.1754588 11.1294611,69.1914865 14.2511392,70.2075142 C17.3728173,71.2235419 21.1391898,71.7315558 25.5502567,71.7315558 L25.5502567,71.7315558 Z M62.1960432,14.1227851 L74.5130992,12.0907297 L74.5130992,28.1439674 L93.4467556,28.1439674 L93.4467556,38.4058471 L74.5130992,38.4058471 L74.5130992,60.0472372 C74.5130992,64.3145536 75.1917249,67.3626367 76.5489763,69.1914865 C77.9062276,71.0203364 80.2135549,71.9347613 83.4709582,71.9347613 C85.7104229,71.9347613 87.695403,71.6976882 89.4258985,71.2235419 C91.1563939,70.7493957 92.5306109,70.309117 93.5485494,69.9027059 L95.5844265,79.6565719 C94.1593126,80.2661885 92.2930919,80.8927389 89.9857646,81.5362231 C87.6784373,82.1797073 84.9639346,82.5014494 81.8422565,82.5014494 C78.0419527,82.5014494 74.8693777,81.9934356 72.3245314,80.9774079 C69.7796851,79.9613802 67.7607738,78.48814 66.2677973,76.5576874 C64.7748208,74.6272347 63.722951,72.290371 63.1121879,69.5470962 C62.5014248,66.8038214 62.1960432,63.6710693 62.1960432,60.14884 L62.1960432,14.1227851 L62.1960432,14.1227851 Z M153.505128,54.6622904 C153.505128,58.8618715 152.894365,62.6889092 151.672839,66.1434034 C150.451312,69.5978976 148.720817,72.5443779 146.481352,74.9828444 C144.241887,77.4213109 141.54435,79.317896 138.388741,80.6725996 C135.233132,82.0273032 131.755175,82.704655 127.954871,82.704655 C124.154567,82.704655 120.693576,82.0273032 117.571898,80.6725996 C114.45022,79.317896 111.769649,77.4213109 109.530184,74.9828444 C107.290719,72.5443779 105.543258,69.5978976 104.287801,66.1434034 C103.032343,62.6889092 102.404615,58.8618715 102.404615,54.6622904 C102.404615,50.4627092 103.032343,46.6526053 104.287801,43.2319787 C105.543258,39.8113521 107.307685,36.8818056 109.581081,34.4433391 C111.854477,32.0048726 114.552014,30.1252214 117.673692,28.8043854 C120.79537,27.4835493 124.22243,26.8231313 127.954871,26.8231313 C131.687312,26.8231313 135.131338,27.4835493 138.286947,28.8043854 C141.442557,30.1252214 144.140094,32.0048726 146.379558,34.4433391 C148.619023,36.8818056 150.366484,39.8113521 151.621942,43.2319787 C152.877399,46.6526053 153.505128,50.4627092 153.505128,54.6622904 L153.505128,54.6622904 Z M140.88269,54.6622904 C140.88269,49.3789463 139.745992,45.196299 137.472596,42.1143483 C135.1992,39.0323976 132.026625,37.4914222 127.954871,37.4914222 C123.883117,37.4914222 120.710542,39.0323976 118.437146,42.1143483 C116.16375,45.196299 115.027052,49.3789463 115.027052,54.6622904 C115.027052,60.0133696 116.16375,64.2468184 118.437146,67.3626367 C120.710542,70.4784549 123.883117,72.0363641 127.954871,72.0363641 C132.026625,72.0363641 135.1992,70.4784549 137.472596,67.3626367 C139.745992,64.2468184 140.88269,60.0133696 140.88269,54.6622904 L140.88269,54.6622904 Z M163.277338,54.7638931 C163.277338,50.8352527 163.888101,47.1606192 165.109627,43.7399926 C166.331153,40.319366 168.078614,37.3559519 170.35201,34.8497502 C172.625406,32.3435485 175.390806,30.3792283 178.648209,28.9567895 C181.905612,27.5343507 185.570191,26.8231313 189.641945,26.8231313 C194.663775,26.8231313 199.414155,27.7375563 203.893084,29.5664061 L201.246444,39.6250804 C199.82133,39.0154638 198.209594,38.5074499 196.411236,38.1010388 C194.612878,37.6946278 192.695761,37.4914222 190.659884,37.4914222 C185.841641,37.4914222 182.177063,38.99853 179.666148,42.0127455 C177.155233,45.026961 175.899775,49.2773436 175.899775,54.7638931 C175.899775,60.0472372 177.08737,64.2298846 179.46256,67.3118353 C181.83775,70.393786 185.841641,71.9347613 191.474234,71.9347613 C193.577974,71.9347613 195.647782,71.7315558 197.683659,71.3251447 C199.719536,70.9187336 201.483963,70.4107198 202.97694,69.8011031 L204.707435,79.9613802 C203.350184,80.638732 201.297341,81.2483486 198.548907,81.79023 C195.800473,82.3321115 192.967211,82.6030522 190.049121,82.6030522 C185.502329,82.6030522 181.549334,81.9087666 178.190137,80.5201954 C174.83094,79.1316242 172.048575,77.2011716 169.843041,74.7288375 C167.637508,72.2565034 165.99184,69.3100231 164.906039,65.8893965 C163.820238,62.4687699 163.277338,58.7602688 163.277338,54.7638931 L163.277338,54.7638931 Z M226.593113,48.8709325 C228.153952,47.2452882 229.816585,45.5011073 231.581012,43.6383898 C233.345439,41.7756724 235.075934,39.9129549 236.772498,38.0502374 C238.469063,36.18752 240.080799,34.3925377 241.607706,32.6652906 C243.134614,30.9380435 244.440969,29.4309358 245.52677,28.1439674 L260.08329,28.1439674 C256.690162,31.9371374 253.110412,35.8657779 249.344039,39.9298887 C245.577667,43.9939995 241.794328,47.9565075 237.994025,51.8174128 C240.029902,53.5107923 242.167572,55.5597815 244.407037,57.9643804 C246.646502,60.3689793 248.818104,62.9259824 250.921844,65.6353896 C253.025583,68.3447968 254.993598,71.054204 256.825887,73.7636112 C258.658176,76.4730184 260.185084,78.9792201 261.40661,81.2822162 L247.155471,81.2822162 C245.933945,79.1824256 244.525797,76.9810322 242.931026,74.6780361 C241.336256,72.37504 239.622726,70.139779 237.790437,67.9722533 C235.958148,65.8047275 234.091927,63.7557383 232.191775,61.8252857 C230.291623,59.894833 228.425403,58.2522549 226.593113,56.8975513 L226.593113,81.2822162 L214.276057,81.2822162 L214.276057,4.47052189 L226.593113,2.43846649 L226.593113,48.8709325 L226.593113,48.8709325 Z M302.124151,47.8549048 C300.563312,53.8156006 298.883713,59.6238923 297.085355,65.2797799 C295.286997,70.9356674 293.505605,76.2698128 291.741178,81.2822162 L281.663587,81.2822162 C280.306335,78.1663979 278.881222,74.6103009 277.388245,70.6139253 C275.895269,66.6175497 274.402292,62.3502333 272.909316,57.8119763 C271.416339,53.2737192 269.923363,48.498389 268.430386,43.4859857 C266.93741,38.4735823 265.478364,33.3595762 264.053251,28.1439674 L277.082864,28.1439674 C277.693627,30.9888449 278.406184,34.0538618 279.220534,37.3390181 C280.034885,40.6241743 280.883167,43.9770657 281.765381,47.3976923 C282.647594,50.8183189 283.563739,54.1542765 284.513815,57.4055652 C285.463891,60.6568538 286.413967,63.6372017 287.364043,66.346609 C288.381981,63.2307907 289.382954,60.0133696 290.366961,56.6943458 C291.350968,53.375322 292.284079,50.0562981 293.166292,46.7372743 C294.048505,43.4182505 294.879822,40.1838956 295.660241,37.0342097 C296.440661,33.8845239 297.136252,30.9211097 297.747015,28.1439674 L307.213844,28.1439674 C307.824607,30.9211097 308.503232,33.8845239 309.249721,37.0342097 C309.996209,40.1838956 310.793594,43.4182505 311.641876,46.7372743 C312.490158,50.0562981 313.406303,53.375322 314.39031,56.6943458 C315.374317,60.0133696 316.37529,63.2307907 317.393229,66.346609 C318.275442,63.6372017 319.191587,60.6568538 320.141663,57.4055652 C321.091739,54.1542765 322.024849,50.8183189 322.940994,47.3976923 C323.857138,43.9770657 324.722386,40.6241743 325.536737,37.3390181 C326.351088,34.0538618 327.063645,30.9888449 327.674408,28.1439674 L340.398639,28.1439674 C338.973525,33.3595762 337.51448,38.4735823 336.021503,43.4859857 C334.528527,48.498389 333.035551,53.2737192 331.542574,57.8119763 C330.049598,62.3502333 328.556621,66.6175497 327.063645,70.6139253 C325.570668,74.6103009 324.111623,78.1663979 322.686509,81.2822162 L312.710712,81.2822162 C310.946285,76.2698128 309.130961,70.9356674 307.26474,65.2797799 C305.39852,59.6238923 303.68499,53.8156006 302.124151,47.8549048 L302.124151,47.8549048 Z M368.493742,72.6459807 C372.294046,72.6459807 375.178205,72.4427752 377.146219,72.0363641 L377.146219,58.4215929 C376.467594,58.2183873 375.483587,58.0151818 374.194198,57.8119763 C372.904809,57.6087707 371.479695,57.5071679 369.918856,57.5071679 C368.561605,57.5071679 367.187388,57.6087707 365.796205,57.8119763 C364.405022,58.0151818 363.149565,58.3877253 362.029833,58.9296067 C360.9101,59.4714882 360.010921,60.2335089 359.332295,61.2156691 C358.65367,62.1978292 358.314357,63.4339962 358.314357,64.9241702 C358.314357,67.8367829 359.230502,69.8519045 361.062791,70.969535 C362.89508,72.0871655 365.372064,72.6459807 368.493742,72.6459807 L368.493742,72.6459807 Z M367.475804,26.8231313 C371.547558,26.8231313 374.974617,27.3311452 377.756983,28.3471729 C380.539348,29.3632006 382.761847,30.7856394 384.42448,32.6144892 C386.087113,34.4433391 387.274708,36.6616663 387.987265,39.2694707 C388.699822,41.8772751 389.0561,44.7390865 389.0561,47.8549048 L389.0561,80.0629829 C387.155948,80.469394 384.288755,80.9604741 380.45452,81.5362231 C376.620285,82.1119721 372.294046,82.3998466 367.475804,82.3998466 C364.286263,82.3998466 361.368172,82.0950383 358.721532,81.4854217 C356.074892,80.8758051 353.818462,79.893645 351.952241,78.5389414 C350.086021,77.1842378 348.626975,75.4231231 347.575106,73.2555973 C346.523236,71.0880716 345.997301,68.4125319 345.997301,65.2289785 C345.997301,62.1808954 346.591098,59.6069585 347.778693,57.5071679 C348.966288,55.4073774 350.578024,53.6970641 352.613901,52.376228 C354.649778,51.055392 357.008003,50.1070995 359.688574,49.5313505 C362.369145,48.9556015 365.168476,48.6677269 368.086567,48.6677269 C369.443818,48.6677269 370.868932,48.7523959 372.361908,48.9217339 C373.854885,49.0910718 375.449655,49.3789463 377.146219,49.7853574 L377.146219,47.753302 C377.146219,46.3308632 376.976563,44.9761596 376.63725,43.6891912 C376.297937,42.4022228 375.70414,41.2676585 374.855858,40.2854984 C374.007576,39.3033383 372.887843,38.5413175 371.496661,37.9994361 C370.105478,37.4575546 368.358017,37.1866139 366.254277,37.1866139 C363.40405,37.1866139 360.791341,37.3898194 358.416151,37.7962305 C356.040961,38.2026416 354.106878,38.6767879 352.613901,39.2186693 L351.086994,29.2615978 C352.647833,28.7197164 354.921229,28.1778349 357.907182,27.6359535 C360.893135,27.0940721 364.082675,26.8231313 367.475804,26.8231313 L367.475804,26.8231313 Z M403.510827,14.1227851 L415.827883,12.0907297 L415.827883,28.1439674 L434.761539,28.1439674 L434.761539,38.4058471 L415.827883,38.4058471 L415.827883,60.0472372 C415.827883,64.3145536 416.506509,67.3626367 417.86376,69.1914865 C419.221011,71.0203364 421.528339,71.9347613 424.785742,71.9347613 C427.025207,71.9347613 429.010187,71.6976882 430.740682,71.2235419 C432.471178,70.7493957 433.845395,70.309117 434.863333,69.9027059 L436.89921,79.6565719 C435.474096,80.2661885 433.607876,80.8927389 431.300548,81.5362231 C428.993221,82.1797073 426.278718,82.5014494 423.15704,82.5014494 C419.356737,82.5014494 416.184161,81.9934356 413.639315,80.9774079 C411.094469,79.9613802 409.075558,78.48814 407.582581,76.5576874 C406.089605,74.6272347 405.037735,72.290371 404.426972,69.5470962 C403.816209,66.8038214 403.510827,63.6710693 403.510827,60.14884 L403.510827,14.1227851 L403.510827,14.1227851 Z M443.719398,54.7638931 C443.719398,50.8352527 444.330161,47.1606192 445.551688,43.7399926 C446.773214,40.319366 448.520675,37.3559519 450.794071,34.8497502 C453.067467,32.3435485 455.832867,30.3792283 459.09027,28.9567895 C462.347673,27.5343507 466.012252,26.8231313 470.084006,26.8231313 C475.105836,26.8231313 479.856216,27.7375563 484.335145,29.5664061 L481.688505,39.6250804 C480.263391,39.0154638 478.651655,38.5074499 476.853297,38.1010388 C475.054939,37.6946278 473.137821,37.4914222 471.101944,37.4914222 C466.283702,37.4914222 462.619123,38.99853 460.108208,42.0127455 C457.597293,45.026961 456.341836,49.2773436 456.341836,54.7638931 C456.341836,60.0472372 457.529431,64.2298846 459.904621,67.3118353 C462.279811,70.393786 466.283702,71.9347613 471.916295,71.9347613 C474.020035,71.9347613 476.089843,71.7315558 478.12572,71.3251447 C480.161597,70.9187336 481.926024,70.4107198 483.419,69.8011031 L485.149496,79.9613802 C483.792244,80.638732 481.739402,81.2483486 478.990968,81.79023 C476.242534,82.3321115 473.409272,82.6030522 470.491181,82.6030522 C465.944389,82.6030522 461.991395,81.9087666 458.632198,80.5201954 C455.273,79.1316242 452.490635,77.2011716 450.285102,74.7288375 C448.079568,72.2565034 446.433901,69.3100231 445.3481,65.8893965 C444.262299,62.4687699 443.719398,58.7602688 443.719398,54.7638931 L443.719398,54.7638931 Z M494.718118,81.2822162 L494.718118,4.47052189 L507.035174,2.43846649 L507.035174,28.753584 C508.392425,28.2794377 509.97023,27.8730266 511.768588,27.5343507 C513.566946,27.1956748 515.348338,27.0263369 517.112765,27.0263369 C521.388107,27.0263369 524.933926,27.6190197 527.750223,28.8043854 C530.566519,29.989751 532.82295,31.6492629 534.519514,33.7829211 C536.216078,35.9165793 537.420639,38.4735823 538.133195,41.4539303 C538.845752,44.4342782 539.202031,47.753302 539.202031,51.4110017 L539.202031,81.2822162 L526.884975,81.2822162 L526.884975,53.3414544 C526.884975,50.4965768 526.698353,48.0750441 526.325109,46.0768563 C525.951865,44.0786685 525.341101,42.4530242 524.492819,41.1999233 C523.644537,39.9468225 522.507839,39.0323976 521.082725,38.4566485 C519.657611,37.8808995 517.893185,37.593025 515.789445,37.593025 C514.160743,37.593025 512.498111,37.7623629 510.801546,38.1010388 C509.104982,38.4397147 507.849525,38.744523 507.035174,39.0154638 L507.035174,81.2822162 L494.718118,81.2822162 L494.718118,81.2822162 Z" id="Shape"></path>
                </g>
                <g id="SvgjsG1140" transform="translate(224.096324, 134.576761)" fill="#2F8535" sketch:type="MSShapeGroup">
                    <path d="M8.74093553,2.77735826 C11.8662989,2.77735826 14.4270804,3.75849025 16.4232802,5.72075424 C18.4194801,7.68301823 19.4377436,10.2641501 19.4780709,13.4641498 C19.4780709,16.6440238 18.4749301,19.2100613 16.4686484,21.1622624 C14.4623668,23.1144635 11.9066261,24.1106898 8.80142643,24.1509414 L0.756136291,24.1509414 L0.756136291,2.77735826 L8.74093553,2.77735826 L8.74093553,2.77735826 Z M8.13602649,21.7962246 C10.8177899,21.7962246 12.9198488,21.0867907 14.4422032,19.6679229 C15.9645576,18.2490551 16.7358166,16.1811307 16.7559802,13.4641498 C16.7559802,10.8477978 16.0099257,8.81509361 14.5178168,7.36603713 C13.0257078,5.91698064 10.8984444,5.17232662 8.13602649,5.13207505 L3.29675423,5.13207505 L3.29675423,21.7962246 L8.13602649,21.7962246 L8.13602649,21.7962246 Z M30.4936932,9.66037656 C30.8566386,9.66037656 31.1792568,9.71069102 31.4615477,9.81131994 L31.3103204,12.1962254 C30.8667205,12.0754707 30.4432841,12.0150933 30.0400114,12.0150933 C28.6688843,12.0150933 27.635498,12.462892 26.9398527,13.3584895 C26.2442073,14.2540869 25.8963846,15.5169798 25.8963846,17.1471684 L25.8963846,24.1509414 L23.5372393,24.1509414 L23.5372393,13.1622631 C23.5372393,12.8805021 23.4969121,11.8339613 23.4162575,10.0226407 L25.654421,10.0226407 C25.6947482,11.4314456 25.7149119,12.2062883 25.7149119,12.3471688 L25.7754028,12.3471688 C26.1585118,11.5421374 26.7785436,10.8930809 27.635498,10.3999991 C28.4924525,9.90691742 29.4451842,9.66037656 30.4936932,9.66037656 L30.4936932,9.66037656 Z M36.9422524,10.0226407 L36.9422524,18.5962249 C36.9422524,19.6830172 37.1993387,20.5735832 37.7135114,21.2679228 C38.2276841,21.9622623 39.0493522,22.319495 40.1785157,22.3396208 C41.6302974,22.3396208 42.7241746,21.856602 43.4601472,20.8905643 C44.1961199,19.9245266 44.5641062,18.6364764 44.5641062,17.0264137 L44.5641062,10.0226407 L46.9232514,10.0226407 L46.9232514,21.011319 C46.9434151,21.574841 46.9837423,22.6213818 47.0442332,24.1509414 L44.8060698,24.1509414 C44.7859062,23.1849037 44.7657425,22.410061 44.7455789,21.8264133 L44.685088,21.8264133 C44.3221426,22.6113189 43.7121926,23.255344 42.8552382,23.7584886 C41.9982837,24.2616332 41.0253884,24.5132055 39.9365521,24.5132055 C38.2024795,24.4930797 36.8767206,23.9748408 35.9592752,22.9584887 C35.0418298,21.9421365 34.5831072,20.5786146 34.5831072,18.867923 L34.5831072,10.0226407 L36.9422524,10.0226407 L36.9422524,10.0226407 Z M59.1789373,9.66037656 C61.4171007,9.66037656 63.2116642,10.364779 64.5626277,11.7735839 C65.9135912,13.1823888 66.5991548,14.9534579 66.6193184,17.086791 C66.6193184,19.1999984 65.9337548,20.9559731 64.5626277,22.3547151 C63.1915006,23.7534571 61.5179189,24.4729539 59.5418827,24.5132055 C58.3320647,24.5132055 57.2381875,24.2515703 56.2602512,23.7282999 C55.2823149,23.2050295 54.561465,22.51069 54.0977014,21.6452812 L54.0372105,21.6452812 L54.0372105,31.0339597 L51.6780653,31.0339597 L51.6780653,10.0226407 L54.0372105,10.0226407 L54.0372105,12.0754707 L54.0977014,12.0754707 C55.4889922,10.4654079 57.1827375,9.66037656 59.1789373,9.66037656 L59.1789373,9.66037656 Z M54.0372105,17.086791 C54.0372105,18.6364764 54.506015,19.8893065 55.443624,20.8452813 C56.381233,21.8012561 57.5860102,22.2993692 59.0579555,22.3396208 C60.5299008,22.3396208 61.7296371,21.8515705 62.6571642,20.87547 C63.5846914,19.8993694 64.0585368,18.6364764 64.0787005,17.086791 C64.0787005,15.5572314 63.609896,14.2993699 62.672287,13.3132064 C61.734678,12.327043 60.519819,11.8339613 59.02771,11.8339613 C57.5759284,11.8339613 56.3862739,12.3220116 55.4587468,13.2981121 C54.5312196,14.2742127 54.0573742,15.5371056 54.0372105,17.086791 L54.0372105,17.086791 Z M76.1226682,9.66037656 C78.1793589,9.66037656 79.6765088,10.1433954 80.6141178,11.109433 C81.5517268,12.0754707 82.0306131,13.5345901 82.0507767,15.4867912 L82.0507767,21.8264133 C82.0507767,22.4301868 82.1213494,23.2050295 82.2624949,24.1509414 L79.994086,24.1509414 C79.8932678,23.9698093 79.8428587,23.2654069 79.8428587,22.037734 L79.7823678,22.037734 C78.7136952,23.6477968 77.1610954,24.4729539 75.1245683,24.5132055 C73.5719684,24.5132055 72.3067004,24.1257842 71.3287641,23.3509415 C70.3508278,22.5760988 69.8618597,21.5647781 69.8618597,20.3169794 C69.8618597,18.6062878 70.5675869,17.3534577 71.9790413,16.5584892 C73.3904957,15.7635207 75.5984137,15.3660365 78.6027952,15.3660365 L79.6916315,15.3660365 L79.6916315,14.9735837 C79.6916315,12.9207536 78.5221407,11.8742129 76.1831591,11.8339613 C74.4894138,11.8339613 73.0880412,12.3471688 71.9790413,13.3735838 L70.4970142,11.8339613 C71.9487959,10.4251564 73.8240139,9.70062813 76.1226682,9.66037656 L76.1226682,9.66037656 Z M72.4024776,20.07547 C72.4024776,21.665407 73.4409048,22.4805013 75.5177592,22.5207528 C76.7477409,22.5207528 77.7508817,22.1283001 78.5271816,21.3433945 C79.3034815,20.5584889 79.6916315,19.4113191 79.6916315,17.9018853 L79.6916315,17.3584891 L77.0905226,17.3584891 C75.6992319,17.3584891 74.5751092,17.5798728 73.7181548,18.02264 C72.8612003,18.4654073 72.4226413,19.1496839 72.4024776,20.07547 L72.4024776,20.07547 Z M89.3462085,1.32830178 L89.3462085,24.1509414 L86.9870633,24.1509414 L86.9870633,1.32830178 L89.3462085,1.32830178 L89.3462085,1.32830178 Z M113.313162,2.23396208 C114.986744,2.23396208 116.468771,2.5308174 117.759244,3.12452804 C119.049716,3.71823869 120.088143,4.5383644 120.874525,5.5849052 L118.666607,7.18490506 C118.021371,6.31949633 117.224907,5.67043978 116.277216,5.23773541 C115.329526,4.80503105 114.341507,4.58867886 113.313162,4.58867886 C111.034671,4.58867886 109.114085,5.4540876 107.551404,7.18490506 C105.988722,8.91572253 105.187217,11.0088041 105.14689,13.4641498 C105.14689,15.9999987 105.92319,18.1081746 107.47579,19.7886776 C109.02839,21.4691806 110.974181,22.319495 113.313162,22.3396208 C115.873944,22.3396208 117.940716,21.3433945 119.51348,19.3509418 L121.418943,20.9509417 C119.543725,23.4465389 116.841798,24.6943376 113.313162,24.6943376 C110.187799,24.6943376 107.601813,23.6176081 105.555204,21.4641492 C103.508595,19.3106902 102.465127,16.6440238 102.4248,13.4641498 C102.4248,10.2842759 103.458186,7.62767232 105.524958,5.49433917 C107.591731,3.36100601 110.187799,2.27421365 113.313162,2.23396208 L113.313162,2.23396208 Z M131.678429,9.66037656 C133.876265,9.66037656 135.670829,10.3396218 137.06212,11.6981122 C138.45341,13.0566027 139.179301,14.852829 139.239792,17.086791 C139.239792,19.24025 138.534065,21.0062876 137.122611,22.3849038 C135.711156,23.76352 133.896429,24.4729539 131.678429,24.5132055 C129.460429,24.5132055 127.655784,23.8138345 126.264493,22.4150925 C124.873203,21.0163505 124.157394,19.24025 124.117066,17.086791 C124.117066,14.9132063 124.822794,13.1371058 126.234248,11.7584896 C127.645702,10.3798734 129.460429,9.68050234 131.678429,9.66037656 L131.678429,9.66037656 Z M126.657684,17.086791 C126.657684,18.6364764 127.126489,19.8893065 128.064098,20.8452813 C129.001707,21.8012561 130.206484,22.2993692 131.678429,22.3396208 C133.150375,22.3396208 134.350111,21.8515705 135.277638,20.87547 C136.205165,19.8993694 136.679011,18.6364764 136.699174,17.086791 C136.699174,15.5572314 136.23037,14.2993699 135.292761,13.3132064 C134.355152,12.327043 133.140293,11.8339613 131.648184,11.8339613 C130.196402,11.8339613 129.006748,12.3220116 128.079221,13.2981121 C127.151693,14.2742127 126.677848,15.5371056 126.657684,17.086791 L126.657684,17.086791 Z M150.255415,9.66037656 C152.029814,9.66037656 153.370696,10.1735841 154.27806,11.1999991 C155.185423,12.2264141 155.639105,13.5949674 155.639105,15.3056591 L155.639105,24.1509414 L153.27996,24.1509414 L153.27996,15.5773572 C153.27996,14.4905648 153.027914,13.5999989 152.523823,12.9056593 C152.019733,12.2113197 151.193024,11.8540871 150.043696,11.8339613 C148.591915,11.8339613 147.498038,12.3119487 146.762065,13.2679234 C146.026092,14.2238982 145.658106,15.5471685 145.658106,17.2377344 L145.658106,24.1509414 L143.298961,24.1509414 L143.298961,13.1622631 C143.298961,13.0616341 143.258633,12.0150933 143.177979,10.0226407 L145.416142,10.0226407 C145.45647,11.4314456 145.476633,12.2062883 145.476633,12.3471688 L145.537124,12.3471688 C145.920233,11.5421374 146.540265,10.8930809 147.397219,10.3999991 C148.254174,9.90691742 149.206906,9.66037656 150.255415,9.66037656 L150.255415,9.66037656 Z M164.083864,6.00754667 L164.083864,10.0226407 L168.257736,10.0226407 L168.257736,12.0150933 L164.083864,12.0150933 L164.083864,19.5622625 C164.083864,20.6893065 164.265337,21.4339605 164.628282,21.7962246 C164.991227,22.1584887 165.515482,22.3396208 166.201046,22.3396208 C166.987427,22.3396208 167.683073,22.1786145 168.287982,21.856602 L168.378718,23.999998 C167.572173,24.3421363 166.654727,24.5132055 165.626382,24.5132055 C164.1746,24.5132055 163.161378,24.1559728 162.586714,23.4415075 C162.01205,22.7270421 161.724719,21.5547152 161.724719,19.9245266 L161.724719,12.0150933 L158.639683,12.0150933 L158.639683,10.0226407 L161.724719,10.0226407 L161.724719,6.00754667 L164.083864,6.00754667 L164.083864,6.00754667 Z M178.00305,9.66037656 C180.100068,9.66037656 181.738363,10.319496 182.917935,11.6377349 C184.097508,12.9559738 184.697376,14.8226403 184.71754,17.2377344 L184.71754,17.8113193 L173.284759,17.8113193 C173.405741,19.1194953 173.89975,20.1962247 174.766786,21.0415077 C175.633823,21.8867906 176.692413,22.319495 177.942559,22.3396208 C179.858104,22.3396208 181.350213,21.6251554 182.418886,20.1962247 L184.203367,21.5849039 C183.457313,22.5509415 182.580195,23.2805012 181.572013,23.7735829 C180.563831,24.2666647 179.354013,24.5132055 177.942559,24.5132055 C175.78505,24.5132055 174.050977,23.8138345 172.740341,22.4150925 C171.429705,21.0163505 170.764305,19.24025 170.744141,17.086791 C170.744141,14.9534579 171.414582,13.1924517 172.755464,11.8037726 C174.096345,10.4150935 175.845541,9.70062813 178.00305,9.66037656 L178.00305,9.66037656 Z M182.176922,15.8188666 C182.116431,14.5911938 181.718199,13.6201247 180.982227,12.9056593 C180.246254,12.191194 179.212868,11.8339613 177.882068,11.8339613 C176.67225,11.8339613 175.653986,12.1760996 174.827277,12.8603763 C174.000568,13.544653 173.486395,14.5308164 173.284759,15.8188666 L182.176922,15.8188666 L182.176922,15.8188666 Z M195.733162,9.66037656 C197.507562,9.66037656 198.848444,10.1735841 199.755807,11.1999991 C200.663171,12.2264141 201.116853,13.5949674 201.116853,15.3056591 L201.116853,24.1509414 L198.757707,24.1509414 L198.757707,15.5773572 C198.757707,14.4905648 198.505662,13.5999989 198.001571,12.9056593 C197.49748,12.2113197 196.670771,11.8540871 195.521444,11.8339613 C194.069662,11.8339613 192.975785,12.3119487 192.239813,13.2679234 C191.50384,14.2238982 191.135854,15.5471685 191.135854,17.2377344 L191.135854,24.1509414 L188.776708,24.1509414 L188.776708,13.1622631 C188.776708,13.0616341 188.736381,12.0150933 188.655727,10.0226407 L190.89389,10.0226407 C190.934217,11.4314456 190.954381,12.2062883 190.954381,12.3471688 L191.014872,12.3471688 C191.397981,11.5421374 192.018013,10.8930809 192.874967,10.3999991 C193.731922,9.90691742 194.684653,9.66037656 195.733162,9.66037656 L195.733162,9.66037656 Z M209.561612,6.00754667 L209.561612,10.0226407 L213.735484,10.0226407 L213.735484,12.0150933 L209.561612,12.0150933 L209.561612,19.5622625 C209.561612,20.6893065 209.743084,21.4339605 210.10603,21.7962246 C210.468975,22.1584887 210.99323,22.3396208 211.678793,22.3396208 C212.465175,22.3396208 213.16082,22.1786145 213.765729,21.856602 L213.856466,23.999998 C213.04992,24.3421363 212.132475,24.5132055 211.10413,24.5132055 C209.652348,24.5132055 208.639125,24.1559728 208.064462,23.4415075 C207.489798,22.7270421 207.202466,21.5547152 207.202466,19.9245266 L207.202466,12.0150933 L204.11743,12.0150933 L204.11743,10.0226407 L207.202466,10.0226407 L207.202466,6.00754667 L209.561612,6.00754667 L209.561612,6.00754667 Z M222.482697,9.66037656 C224.539388,9.66037656 226.036538,10.1433954 226.974147,11.109433 C227.911756,12.0754707 228.390642,13.5345901 228.410806,15.4867912 L228.410806,21.8264133 C228.410806,22.4301868 228.481379,23.2050295 228.622524,24.1509414 L226.354115,24.1509414 C226.253297,23.9698093 226.202888,23.2654069 226.202888,22.037734 L226.142397,22.037734 C225.073724,23.6477968 223.521125,24.4729539 221.484597,24.5132055 C219.931998,24.5132055 218.66673,24.1257842 217.688793,23.3509415 C216.710857,22.5760988 216.221889,21.5647781 216.221889,20.3169794 C216.221889,18.6062878 216.927616,17.3534577 218.339071,16.5584892 C219.750525,15.7635207 221.958443,15.3660365 224.962824,15.3660365 L226.051661,15.3660365 L226.051661,14.9735837 C226.051661,12.9207536 224.88217,11.8742129 222.543188,11.8339613 C220.849443,11.8339613 219.44807,12.3471688 218.339071,13.3735838 L216.857043,11.8339613 C218.308825,10.4251564 220.184043,9.70062813 222.482697,9.66037656 L222.482697,9.66037656 Z M218.762507,20.07547 C218.762507,21.665407 219.800934,22.4805013 221.877788,22.5207528 C223.10777,22.5207528 224.110911,22.1283001 224.887211,21.3433945 C225.663511,20.5584889 226.051661,19.4113191 226.051661,17.9018853 L226.051661,17.3584891 L223.450552,17.3584891 C222.059261,17.3584891 220.935138,17.5798728 220.078184,18.02264 C219.22123,18.4654073 218.78267,19.1496839 218.762507,20.07547 L218.762507,20.07547 Z M249.958123,2.77735826 C253.083487,2.77735826 255.644268,3.75849025 257.640468,5.72075424 C259.636668,7.68301823 260.654931,10.2641501 260.695259,13.4641498 C260.695259,16.6440238 259.692118,19.2100613 257.685836,21.1622624 C255.679555,23.1144635 253.123814,24.1106898 250.018614,24.1509414 L241.973324,24.1509414 L241.973324,2.77735826 L249.958123,2.77735826 L249.958123,2.77735826 Z M249.353214,21.7962246 C252.034978,21.7962246 254.137037,21.0867907 255.659391,19.6679229 C257.181745,18.2490551 257.953004,16.1811307 257.973168,13.4641498 C257.973168,10.8477978 257.227114,8.81509361 255.735005,7.36603713 C254.242896,5.91698064 252.115632,5.17232662 249.353214,5.13207505 L244.513942,5.13207505 L244.513942,21.7962246 L249.353214,21.7962246 L249.353214,21.7962246 Z M271.196708,9.66037656 C273.293726,9.66037656 274.932022,10.319496 276.111594,11.6377349 C277.291167,12.9559738 277.891035,14.8226403 277.911199,17.2377344 L277.911199,17.8113193 L266.478418,17.8113193 C266.5994,19.1194953 267.093409,20.1962247 267.960445,21.0415077 C268.827481,21.8867906 269.886072,22.319495 271.136218,22.3396208 C273.051763,22.3396208 274.543872,21.6251554 275.612544,20.1962247 L277.397026,21.5849039 C276.650972,22.5509415 275.773853,23.2805012 274.765672,23.7735829 C273.75749,24.2666647 272.547672,24.5132055 271.136218,24.5132055 C268.978709,24.5132055 267.244636,23.8138345 265.934,22.4150925 C264.623364,21.0163505 263.957964,19.24025 263.9378,17.086791 C263.9378,14.9534579 264.608241,13.1924517 265.949123,11.8037726 C267.290004,10.4150935 269.0392,9.70062813 271.196708,9.66037656 L271.196708,9.66037656 Z M275.370581,15.8188666 C275.31009,14.5911938 274.911858,13.6201247 274.175885,12.9056593 C273.439913,12.191194 272.406527,11.8339613 271.075727,11.8339613 C269.865909,11.8339613 268.847645,12.1760996 268.020936,12.8603763 C267.194227,13.544653 266.680054,14.5308164 266.478418,15.8188666 L275.370581,15.8188666 L275.370581,15.8188666 Z M288.957067,9.66037656 C291.114575,9.66037656 292.596603,10.555974 293.403148,12.3471688 C293.96773,11.4213827 294.602884,10.7421375 295.308611,10.3094331 C296.014339,9.87672874 296.881375,9.66037656 297.90972,9.66037656 C299.744611,9.66037656 301.095574,10.1383639 301.962611,11.0943387 C302.829647,12.0503135 303.263165,13.4943385 303.263165,15.4264138 L303.263165,24.1509414 L300.90402,24.1509414 L300.90402,15.6075459 C300.90402,13.1320744 299.754693,11.8742129 297.456038,11.8339613 C296.387366,11.8339613 295.510248,12.2314455 294.824684,13.026414 C294.139121,13.8213825 293.796339,14.7823887 293.796339,15.9094326 L293.796339,24.1509414 L291.437194,24.1509414 L291.437194,15.96981 C291.437194,14.5811309 291.235557,13.544653 290.832285,12.8603763 C290.429012,12.1760996 289.713203,11.8339613 288.684857,11.8339613 C287.253239,11.8339613 286.169444,12.3119487 285.433471,13.2679234 C284.697499,14.2238982 284.329512,15.5471685 284.329512,17.2377344 L284.329512,24.1509414 L281.970367,24.1509414 L281.970367,13.1622631 C281.950204,12.4578606 281.909876,11.4113198 281.849385,10.0226407 L284.087549,10.0226407 C284.127876,11.4113198 284.14804,12.1861625 284.14804,12.3471688 L284.208531,12.3471688 C284.59164,11.5421374 285.206631,10.8930809 286.053503,10.3999991 C286.900376,9.90691742 287.86823,9.66037656 288.957067,9.66037656 L288.957067,9.66037656 Z M314.883697,9.66037656 C317.081533,9.66037656 318.876096,10.3396218 320.267387,11.6981122 C321.658678,13.0566027 322.384569,14.852829 322.445059,17.086791 C322.445059,19.24025 321.739332,21.0062876 320.327878,22.3849038 C318.916423,23.76352 317.101696,24.4729539 314.883697,24.5132055 C312.665697,24.5132055 310.861051,23.8138345 309.469761,22.4150925 C308.07847,21.0163505 307.362661,19.24025 307.322334,17.086791 C307.322334,14.9132063 308.028061,13.1371058 309.439515,11.7584896 C310.85097,10.3798734 312.665697,9.68050234 314.883697,9.66037656 L314.883697,9.66037656 Z M309.862952,17.086791 C309.862952,18.6364764 310.331756,19.8893065 311.269365,20.8452813 C312.206974,21.8012561 313.411751,22.2993692 314.883697,22.3396208 C316.355642,22.3396208 317.555378,21.8515705 318.482905,20.87547 C319.410432,19.8993694 319.884278,18.6364764 319.904442,17.086791 C319.904442,15.5572314 319.435637,14.2993699 318.498028,13.3132064 C317.560419,12.327043 316.34556,11.8339613 314.853451,11.8339613 C313.401669,11.8339613 312.212015,12.3220116 311.284488,13.2981121 C310.356961,14.2742127 309.883115,15.5371056 309.862952,17.086791 L309.862952,17.086791 Z" id="Shape"></path>
                </g>
            </g>
        </g>
    </g>
</svg>