<?xml version="1.0" encoding="UTF-8"?>
<svg width="110px" height="100px" viewBox="0 0 110 100" version="1.1" xmlns="http://www.w3.org/2000/svg" xmlns:xlink="http://www.w3.org/1999/xlink" xmlns:sketch="http://www.bohemiancoding.com/sketch/ns">
    <!-- Generator: Sketch 3.3.3 (12072) - http://www.bohemiancoding.com/sketch -->
    <title>logo</title>
    <desc>Created with Sketch.</desc>
    <defs></defs>
    <g id="Page-1" stroke="none" stroke-width="1" fill="none" fill-rule="evenodd" sketch:type="MSPage">
        <g id="logo" sketch:type="MSArtboardGroup">
            <g id="stockwatch_logo" sketch:type="MSLayerGroup" transform="translate(-5.000000, -8.000000)">
                <g id="SvgjsG1137"></g>
                <g id="SvgjsG1138" transform="translate(11.085945, 13.319271)" fill="#2F8535" sketch:type="MSShapeGroup">
                    <path d="M97.972477,8.30512108 C96.9341624,3.99475778 93.1080442,0.985038687 88.6703161,0.985038687 C87.9175653,0.985038687 87.1615323,1.07458766 86.4240991,1.25150148 C81.2927024,2.48443793 78.1219588,7.65425295 79.357214,12.7782014 C79.8003303,14.6194156 80.7543981,16.2181924 82.0454532,17.4511289 L60.8787153,57.2075961 C59.8075773,56.791521 58.6456278,56.5545438 57.4289725,56.5545438 C55.5635074,56.5545438 53.8271478,57.09839 52.3533757,58.0244574 L36.5302927,37.7481677 C37.7939949,36.1297339 38.5554985,34.0985011 38.5554985,31.8914466 C38.5554985,26.6233461 34.2610994,22.335916 28.9819972,22.335916 C23.7028951,22.335916 19.4084959,26.6233461 19.4084959,31.8914466 C19.4084959,34.6434393 20.5857631,37.1191408 22.4556046,38.8642537 L10.7595213,65.1337721 C10.4455105,65.1021023 10.1271232,65.0846294 9.80545356,65.0846294 C4.52635141,65.0846294 0.23195226,69.3720594 0.23195226,74.6401599 C0.23195226,79.9104445 4.52635141,84.1956904 9.80545356,84.1956904 C15.0845557,84.1956904 19.3789549,79.9104445 19.3789549,74.6401599 C19.3789549,71.2449434 17.5900778,68.2647099 14.9084033,66.5687398 L26.2718758,41.0527432 C27.1318497,41.3061012 28.0399647,41.4469771 28.9819972,41.4469771 C30.4667105,41.4469771 31.8693652,41.0997018 33.1243145,40.4936081 L49.2537495,61.1619476 C48.3718932,62.6078359 47.8554712,64.2972537 47.8554712,66.1100743 C47.8554712,71.3803589 52.1498704,75.6656048 57.4289725,75.6656048 C62.7080747,75.6656048 67.0024738,71.3803589 67.0024738,66.1100743 C67.0024738,63.6420173 66.0516884,61.3967406 64.5078929,59.6985864 L85.8223362,19.6636437 C86.7227924,19.9432112 87.6746719,20.0982838 88.660469,20.0982838 C89.4132198,20.0982838 90.1692528,20.0087348 90.906686,19.831821 C96.0369885,18.5988846 99.2077322,13.4290696 97.972477,8.30512108 L97.972477,8.30512108 Z M9.80545356,79.8274479 C6.93996785,79.8274479 4.60841,77.5002667 4.60841,74.6401599 C4.60841,71.7800531 6.93996785,69.4528719 9.80545356,69.4528719 C12.6709393,69.4528719 15.0024971,71.7800531 15.0024971,74.6401599 C15.0024971,77.5002667 12.6709393,79.8274479 9.80545356,79.8274479 L9.80545356,79.8274479 Z M23.7838596,31.8914466 C23.7838596,29.0313398 26.1154174,26.7041586 28.9809031,26.7041586 C31.8463888,26.7041586 34.1779467,29.0313398 34.1779467,31.8914466 C34.1779467,34.7515533 31.8463888,37.0787345 28.9809031,37.0787345 C26.1154174,37.0787345 23.7838596,34.7515533 23.7838596,31.8914466 L23.7838596,31.8914466 Z M57.4278784,71.2973623 C54.5623927,71.2973623 52.2308348,68.9701811 52.2308348,66.1100743 C52.2308348,63.2499675 54.5623927,60.9227863 57.4278784,60.9227863 C60.2933641,60.9227863 62.624922,63.2499675 62.624922,66.1100743 C62.624922,68.9701811 60.2933641,71.2973623 57.4278784,71.2973623 L57.4278784,71.2973623 Z M89.8815007,15.5847972 C89.4788666,15.6808986 89.0674796,15.7300413 88.6593749,15.7300413 C87.8004951,15.7300413 86.9886622,15.5149054 86.2665466,15.1392365 C86.1516646,15.0431352 86.0258415,14.9579544 85.8879831,14.8858784 C85.8507832,14.8640372 85.8103009,14.8563928 85.7720069,14.8367357 C84.7216571,14.1323566 83.9262359,13.0621372 83.6111309,11.7571247 C82.9415329,8.97564631 84.6614808,6.16905049 87.4470961,5.49961733 C87.8497302,5.40351599 88.2611173,5.35437326 88.6692219,5.35437326 C91.0762737,5.35437326 93.1529029,6.98809597 93.7163718,9.32838189 C94.3881581,12.1087683 92.6671161,14.9153641 89.8815007,15.5847972 L89.8815007,15.5847972 Z" id="Shape"></path>
                </g>
            </g>
        </g>
    </g>
</svg>